<?xml version="1.0" standalone="no"?> <!DOCTYPE svg PUBLIC "-//W3C//DTD SVG 1.0//EN" "http://www.w3.org/TR/2001/REC-SVG-20010904/DTD/svg10.dtd" > <svg xmlns="http://www.w3.org/2000/svg" width="100%" height="100%">
<defs >
<font id="bnazanin" horiz-adv-x="0" ><font-face
    font-family="B Nazanin"
    units-per-em="2048"
    panose-1="0 0 4 0 0 0 0 0 0 0"
    ascent="1343"
    descent="-705"
    alphabetic="0" />
<missing-glyph horiz-adv-x="1024" d="M128 0V1343H896V0H128ZM256 128H768V1215H256V128Z" />
<glyph unicode=" " glyph-name="space" horiz-adv-x="500" />
<glyph unicode="!" glyph-name="exclam" horiz-adv-x="333" d="M328 940Q328 880 304 721Q278 551 273 470Q264 329 261 234H226Q223 315 214 441L212 469Q208 529 178 725Q154 883 154 943Q154 1155 241 1155Q328 1155 328 940ZM330 81Q330 46 305 22T245 -2Q211
-2 187 22T162 81Q162 116 186 140T245 165Q280 165 305 141T330 81Z" />
<glyph unicode="%" glyph-name="percent" horiz-adv-x="894" d="M231 1024Q231 943 149 943Q115 943 92 966T69 1024Q69 1057 92 1080T149 1104Q183 1104 207 1081T231 1024ZM714 1196L252 -122L196 -102L661 1216L714 1196ZM819 70Q819 36 796 13T739 -11Q705
-11 682 12T658 70Q658 104 681 127T739 151Q773 151 796 128T819 70Z" />
<glyph unicode="(" glyph-name="parenleft" horiz-adv-x="576" d="M573 1036Q559 1013 502 932Q299 643 299 408Q299 216 402 26Q436 -37 568 -216Q574 -224 574 -233Q574 -256 543 -256Q516 -256 426 -168Q317 -62 248 65Q156 234 156 403Q156 596 266 775Q367
938 538 1055Q551 1064 562 1059Q573 1054 573 1036Z" />
<glyph unicode=")" glyph-name="parenright" horiz-adv-x="576" d="M156 -233Q166 -215 227 -129Q431 159 431 396Q431 589 328 777Q294 839 161 1019Q155 1027 155 1036Q155 1060 187 1060Q214 1060 303 972Q412 864 481 738Q573 569 573 400Q573 204 464 28Q364
-134 191 -252Q179 -260 168 -255Q156 -250 156 -233Z" />
<glyph unicode="*" glyph-name="asterisk" horiz-adv-x="1045" d="M917 610Q836 534 705 502Q701 501 695 501Q692 501 691 502Q688 504 691 515Q730 656 800 723Q824 746 855 746Q889 746 913 722T937 663Q937 629 917 610ZM681 777Q681 669 607 549Q602 538
597 538Q592 540 587 549Q518 670 518 773Q518 851 601 851Q631 851 656 829T681 777ZM1043 405Q1043 376 1021 351T969 326Q860 326 740 399Q731 406 731 409Q731 414 740 419Q861 488 965 488Q1043 488 1043 405ZM681 407Q681 374 657 351T599 327Q566 327 542
350T518 407Q518 441 541 464T599 488Q633 488 657 465T681 407ZM914 206Q938 181 938 150Q938 117 913 93T855 69Q821 69 802 89Q727 169 693 301Q690 312 693 316Q697 319 707 316Q846 277 914 206ZM505 499Q502 496 491 499Q353 537 283 609Q260 633 260 664Q260
698 284 721T343 745Q378 745 396 726Q470 650 505 513Q508 502 505 499ZM468 405Q466 400 457 395Q338 327 233 327Q155 327 155 409Q155 439 177 464T229 489Q337 489 457 415Q467 409 468 405ZM680 42Q680 -37 597 -37Q568 -37 543 -14T517 38Q517 145 591 266Q597
276 601 276Q606 275 611 266Q680 144 680 42ZM508 299Q469 162 397 92Q373 69 342 69Q308 69 285 93T262 151Q262 202 348 252Q420 294 494 313Q505 316 508 313Q509 309 508 299Z" />
<glyph unicode="+" glyph-name="plus" horiz-adv-x="767" d="M707 342H420V55H344V342H55V418H344V706H420V418H707V342Z" />
<glyph unicode="," glyph-name="comma" horiz-adv-x="418" d="M159 105Q159 138 187 170Q223 211 281 211Q347 211 384 162Q418 117 418 49Q418 -119 278 -194Q259 -204 232 -205Q204 -206 204 -194Q208 -188 234 -165Q318 -91 318 12Q285 2 257 2Q159 2 159 105Z" />
<glyph unicode="-" glyph-name="hyphen" horiz-adv-x="767" d="M707 342H55V418H707V342Z" />
<glyph unicode="." glyph-name="period" horiz-adv-x="334" d="M333 91Q333 55 307 29T244 3Q208 3 182 29T155 91Q155 127 181 153T244 180Q280 180 306 154T333 91Z" />
<glyph unicode="/" glyph-name="slash" horiz-adv-x="423" d="M378 1119L112 -93H43L310 1119H378Z" />
<glyph unicode="0" glyph-name="zero" horiz-adv-x="960" d="M632 491L457 316L284 490L458 664L632 491Z" />
<glyph unicode="1" glyph-name="one" horiz-adv-x="960" d="M636 248Q636 -33 574 -33Q544 -33 538 70Q538 134 538 198Q533 327 490 488Q413 776 275 987L377 1147Q477 1000 551 764Q636 493 636 248Z" />
<glyph unicode="2" glyph-name="two" horiz-adv-x="960" d="M805 1106Q805 963 721 870Q634 775 492 775Q445 775 394 786Q447 673 487 518Q534 334 534 179Q534 -33 478 -33Q455 -33 448 32L427 228Q413 358 344 551Q262 780 118 983L211 1142Q282 1042 319 1009Q390
946 482 946Q668 946 739 1112Q758 1156 780 1156Q805 1156 805 1106Z" />
<glyph unicode="3" glyph-name="three" horiz-adv-x="960" d="M876 1101Q876 798 687 798Q649 798 609 821T551 877Q536 831 486 802Q440 776 388 776Q360 776 336 784Q379 705 419 551Q467 366 467 213Q467 69 465 48Q457 -34 419 -34Q398 -34 382 81Q374 150
366 219Q347 352 292 513Q201 778 53 972L148 1140Q240 1008 243 1006Q300 944 381 944Q448 944 482 1000Q498 1027 521 1109Q532 1149 554 1149Q579 1149 585 1096Q592 1031 609 1004Q636 961 699 961Q761 961 788 1013Q799 1034 815 1105Q826 1153 852 1153Q876
1153 876 1101Z" />
<glyph unicode="4" glyph-name="four" horiz-adv-x="960" d="M853 840Q853 789 779 736Q697 677 595 677Q477 677 405 726Q447 655 481 519Q520 362 520 213Q520 69 518 48Q510 -34 472 -34Q450 -34 442 32Q436 84 419 219Q401 348 345 513Q257 773 106 972L201
1140Q253 1063 358 932Q364 1043 435 1115T616 1187Q680 1187 737 1148Q782 1117 795 1087Q801 1072 793 1065T769 1062Q712 1080 629 1080Q562 1080 518 1043T474 939Q474 928 476 920Q487 875 540 847Q586 823 638 821Q732 818 795 855Q819 869 833 869Q853 869
853 840Z" />
<glyph unicode="5" glyph-name="five" horiz-adv-x="960" d="M852 250Q852 156 799 73Q737 -24 644 -24Q536 -24 479 80Q416 -39 292 -39Q201 -39 148 37Q100 104 100 199Q100 454 379 944L341 990L420 1154Q575 977 696 773Q852 510 852 351V250ZM775 260Q775
386 617 632Q518 786 423 898Q354 771 285 599Q198 382 198 289Q198 228 224 186Q254 136 311 136Q442 136 456 260Q460 298 485 298Q509 298 516 261Q540 141 657 141Q709 141 742 174T775 260Z" />
<glyph unicode="6" glyph-name="six" horiz-adv-x="888" d="M824 811L756 616Q349 480 134 -2Q120 -33 103 -33Q80 -33 84 5Q98 137 181 307Q256 460 357 551Q123 581 123 775Q123 870 238 1004Q365 1152 483 1152Q545 1152 610 1110Q680 1064 690 1006Q693 991
684 983T659 978Q562 1004 480 1004Q400 1004 330 959Q251 908 251 832Q251 705 471 705Q528 705 629 752Q661 767 786 828Q810 840 820 834Q830 828 824 811Z" />
<glyph unicode="7" glyph-name="seven" horiz-adv-x="960" d="M876 983Q831 928 786 853Q682 679 620 488Q576 350 538 114Q514 -35 485 -35Q460 -35 436 107Q398 332 345 492Q239 810 76 969L131 1130Q140 1155 144 1156Q149 1156 167 1135Q289 996 390 713Q477
469 486 327Q507 507 573 711Q665 995 799 1147Q814 1164 819 1165Q824 1162 830 1142L876 983Z" />
<glyph unicode="8" glyph-name="eight" horiz-adv-x="960" d="M75 146Q122 204 166 276Q269 445 331 641Q377 785 413 1016Q436 1164 466 1164Q491 1164 515 1022Q553 797 606 637Q712 319 876 160L820 -1Q811 -26 806 -26Q799 -23 784 -6Q662 130 561 416Q475
659 465 802Q445 624 379 418Q288 133 152 -18Q138 -34 133 -35Q128 -32 122 -12L75 146Z" />
<glyph unicode="9" glyph-name="nine" horiz-adv-x="960" d="M807 161L769 -14Q764 -35 760 -36Q755 -36 733 -12Q625 106 591 284Q571 390 571 617Q500 590 386 590Q164 590 164 777Q164 908 232 1025Q307 1154 411 1154Q553 1154 616 1006Q661 901 661 736Q661
486 704 343Q737 234 807 161ZM552 778Q548 851 505 911Q457 980 388 980Q337 980 297 941T257 851Q257 755 416 755Q497 755 552 778Z" />
<glyph unicode=":" glyph-name="colon" horiz-adv-x="334" d="M333 522Q333 486 307 460T244 434Q208 434 182 460T155 522Q155 559 181 585T244 611Q281 611 307 585T333 522ZM333 91Q333 55 307 29T244 3Q208 3 182 29T155 91Q155 127 181 153T244 180Q280 180
306 154T333 91Z" />
<glyph unicode="=" glyph-name="equal" horiz-adv-x="767" d="M707 456H55V533H707V456ZM707 210H55V286H707V210Z" />
<glyph unicode="[" glyph-name="bracketleft" horiz-adv-x="640" d="M539 -101H214V1544H539V1482H357V-39H539V-101Z" />
<glyph unicode="]" glyph-name="bracketright" horiz-adv-x="640" d="M419 -101H135V-39H276V1481H135V1542H419V-101Z" />
<glyph unicode="{" glyph-name="braceleft" horiz-adv-x="981" d="M832 -320Q680 -293 583 -191Q480 -84 480 66Q480 127 506 243Q525 328 525 355Q525 452 453 518Q386 580 287 591V629Q526 681 526 848Q526 895 510 970Q483 1096 483 1158Q483 1309 584 1415Q680
1517 832 1542V1502Q738 1488 677 1429Q610 1365 610 1274Q610 1228 623 1159Q653 999 653 949Q653 725 367 613Q650 497 650 263Q650 214 623 84Q606 2 606 -51Q606 -231 832 -284V-320Z" />
<glyph unicode="}" glyph-name="braceright" horiz-adv-x="981" d="M695 593Q456 541 456 373Q456 321 471 251Q499 120 499 64Q499 -87 398 -193Q302 -295 150 -320V-280Q244 -266 305 -207Q371 -144 371 -52Q371 -4 359 62Q329 226 329 273Q329 496 614 609Q332
725 332 958Q332 1013 358 1138Q376 1225 376 1273Q376 1453 150 1506V1542Q302 1514 399 1413Q502 1307 502 1156Q502 1099 475 979Q457 899 457 866Q457 769 530 704Q594 646 695 630V593Z" />
</font>
</defs>
</svg>
